<svg xmlns="http://www.w3.org/2000/svg" width="1200" height="630" viewBox="0 0 1200 630">
  <defs>
    <linearGradient id="bg" x1="0%" y1="0%" x2="100%" y2="100%">
      <stop offset="0%" style="stop-color:#1e293b"/>
      <stop offset="100%" style="stop-color:#0f172a"/>
    </linearGradient>
    <linearGradient id="accent" x1="0%" y1="0%" x2="100%" y2="0%">
      <stop offset="0%" style="stop-color:#06b6d4"/>
      <stop offset="100%" style="stop-color:#3b82f6"/>
    </linearGradient>
  </defs>
  
  <!-- Background -->
  <rect width="1200" height="630" fill="url(#bg)"/>
  
  <!-- Grid pattern -->
  <g opacity="0.1">
    <line x1="0" y1="100" x2="1200" y2="100" stroke="#fff" stroke-width="1"/>
    <line x1="0" y1="200" x2="1200" y2="200" stroke="#fff" stroke-width="1"/>
    <line x1="0" y1="300" x2="1200" y2="300" stroke="#fff" stroke-width="1"/>
    <line x1="0" y1="400" x2="1200" y2="400" stroke="#fff" stroke-width="1"/>
    <line x1="0" y1="500" x2="1200" y2="500" stroke="#fff" stroke-width="1"/>
    <line x1="200" y1="0" x2="200" y2="630" stroke="#fff" stroke-width="1"/>
    <line x1="400" y1="0" x2="400" y2="630" stroke="#fff" stroke-width="1"/>
    <line x1="600" y1="0" x2="600" y2="630" stroke="#fff" stroke-width="1"/>
    <line x1="800" y1="0" x2="800" y2="630" stroke="#fff" stroke-width="1"/>
    <line x1="1000" y1="0" x2="1000" y2="630" stroke="#fff" stroke-width="1"/>
  </g>
  
  <!-- Logo circle -->
  <circle cx="200" cy="315" r="80" fill="url(#accent)" opacity="0.2"/>
  <circle cx="200" cy="315" r="60" fill="url(#accent)" opacity="0.4"/>
  <circle cx="200" cy="315" r="40" fill="url(#accent)"/>
  
  <!-- Calculator icon -->
  <rect x="170" y="280" width="60" height="70" rx="8" fill="#fff"/>
  <rect x="180" y="290" width="40" height="8" rx="2" fill="#1e293b"/>
  <rect x="180" y="305" width="40" height="8" rx="2" fill="#06b6d4"/>
  <rect x="180" y="320" width="40" height="8" rx="2" fill="#3b82f6"/>
  <rect x="180" y="335" width="25" height="8" rx="2" fill="#1e293b"/>
  
  <!-- Main text -->
  <text x="320" y="280" font-family="Arial, sans-serif" font-size="72" font-weight="bold" fill="#fff">
    CalcuLabs
  </text>
  
  <!-- Subtitle -->
  <text x="320" y="340" font-family="Arial, sans-serif" font-size="36" fill="#94a3b8">
    Calculadoras Online Gratuitas
  </text>
  
  <!-- Features list -->
  <text x="320" y="400" font-family="Arial, sans-serif" font-size="24" fill="#64748b">
    • Matemática • Finanças • Saúde
  </text>
  
  <text x="320" y="440" font-family="Arial, sans-serif" font-size="24" fill="#64748b">
    • Conversores • Datas • Tributos
  </text>
  
  <!-- CTA -->
  <rect x="320" y="480" width="300" height="60" rx="30" fill="url(#accent)"/>
  <text x="470" y="518" font-family="Arial, sans-serif" font-size="24" font-weight="bold" fill="#fff" text-anchor="middle">
    Começar Agora
  </text>
  
  <!-- URL -->
  <text x="1000" y="580" font-family="Arial, sans-serif" font-size="20" fill="#64748b" text-anchor="end">
    www.calculabs.com.br
  </text>
</svg>